<?xml version="1.0" encoding="UTF-8"?>
<svg display="block" version="1.1" viewBox="0 0 2275 2000" xmlns="http://www.w3.org/2000/svg" xmlns:cc="http://creativecommons.org/ns#" xmlns:dc="http://purl.org/dc/elements/1.1/" xmlns:rdf="http://www.w3.org/1999/02/22-rdf-syntax-ns#">
<metadata>
<rdf:RDF>
<cc:Work rdf:about="">
<dc:format>image/svg+xml</dc:format>
<dc:type rdf:resource="http://purl.org/dc/dcmitype/StillImage"/>
</cc:Work>
</rdf:RDF>
</metadata>
<style>.svg-container {
          padding-top: 10%;
          padding-left: 37%;
          fill: #00F7FF
        }
        g path#path2 {
          animation: scalar infinite;
          animation-duration: 2s;
          transform-origin: 1000px 1000px;
          width: 99%;
          height: 99%;
        }
        g path#path4 {
          animation: scalarRotator infinite;
          animation-duration: 2s;
          transform-origin: 1000px 1000px;
          width: 99%;
          height: 99%;
        }
        @keyframes scalar {
          20% {
            transform: scale(.65);
          }
          60% {
            transform: scale(.97);
          }
          98% {
            transform: rotate(0);
          }
        }
        @keyframes scalarRotator {
          20% {
            transform: scale(.65);
            opacity: 10%;
          }
          60% {
            transform: scale(.97);
            opacity: 50%;
          }
          80% {
            transform: rotate(0) rotate(359deg);
            color: #008bbf;
          }
        }</style>
<g fill-rule="evenodd">
<path d="m2027.7 1.3708c-0.7966 0.50449-1.8094 0.69154-2.2532 0.42513-0.4381-0.27208-0.7965-0.11904-0.7965 0.33444 0 0.45914-1.5875 1.6835-3.5334 2.7265-3.8406 2.0633-10.674 11.218-11.931 15.996-1.2859 4.8805-1.7809 18.604-0.7511 20.848 5.1663 11.24 6.2702 12.692 15.072 19.766 1.1892 0.95796 3.2887 1.7459 4.6599 1.7459 1.3656 0 2.4865 0.4478 2.4865 0.99764 0 0.60085 4.3356 0.99764 11.004 0.99764s11.004-0.39679 11.004-0.99764c0-0.54983 0.8989-0.99764 2.0028-0.99764 1.0981 0 2.0028-0.4478 2.0028-0.99764 0-0.54984 0.6657-0.99764 1.485-0.99764 2.8619 0 11.715-8.8654 13.058-13.071 0.3243-1.0316 1.0128-1.8762 1.5305-1.8762 0.5121 0 0.9331-1.7685 0.9331-3.9282s0.4495-4.2059 0.9958-4.5461c0.5519-0.33444 1.0014-3.0553 1.0014-6.0368 0-2.9816-0.4495-5.4247-1.0014-5.4247-0.5463 0-0.9958-1.3207-0.9958-2.9419 0-3.1233-4.9842-12.414-8.0282-14.97-0.9957-0.83892-2.6344-2.1993-3.6471-3.0383-5.5419-4.5801-29.035-7.3292-34.298-4.0132m-159.51 39.752c-0.3186 0.51016-2.1621 1.23-4.0966 1.5928-1.9288 0.35711-3.5106 1.0827-3.5106 1.6042 0 0.52716-0.899 0.95229-2.0028 0.95229-1.0981 0-1.9971 0.4478-1.9971 0.99764s-0.6942 0.99764-1.5362 0.99764c-0.8478 0-2.5377 0.88994-3.7553 1.9783-8.6086 7.709-12.728 12.17-13.286 14.386-0.3584 1.4171-1.0526 2.5678-1.5419 2.5678s-0.8933 0.90127-0.8933 1.9953-0.4495 1.9953-0.9957 1.9953c-0.5519 0-1.0014 1.3151-1.0014 2.9306 0 1.6098-0.4495 3.2083-1.0014 3.5484-1.3769 0.84459-1.2745 21.648 0.1252 25.117 0.6202 1.5305 1.5704 3.9055 2.1166 5.2773s1.394 3.163 1.8833 3.9849c0.4893 0.82759 1.4509 2.6188 2.1336 3.9906 1.4908 2.9872 9.3369 10.895 12.785 12.879 13.82 7.9754 24.944 10.968 33.296 8.9674 2.8506-0.68587 6.0824-1.2981 7.1805-1.3604 1.1038-0.0624 2.4523-0.37411 3.0042-0.69721 0.5519-0.31743 2.2361-0.87294 3.7495-1.2357 1.5135-0.35711 2.7539-1.094 2.7539-1.6325 0-0.53283 0.8022-0.97496 1.7809-0.97496 0.9786 0 2.4238-0.89561 3.2204-1.9953 0.7909-1.094 2.2702-1.9896 3.283-1.9896 1.0071 0 1.559-0.44781 1.2176-0.99764s-0.2276-0.99764 0.2503-0.99764c1.9402 0 8.3412-7.3009 10.333-11.779 0.7795-1.7459 1.7525-3.1686 2.1678-3.1686 0.4154 0 0.7568-1.1223 0.7568-2.4941s0.4495-2.4884 1.0014-2.4884c0.5462 0 0.9957-1.5701 0.9957-3.4917 0-1.9159 0.4495-3.4861 1.0014-3.4861 0.5917 0 1.0014-3.6561 1.0014-8.9731 0-5.3113-0.4097-8.9674-1.0014-8.9674-0.5519 0-1.0014-1.7969-1.0014-3.9849 0-2.1937-0.4495-3.9905-0.9957-3.9905-0.5519 0-1.0014-1.1167-1.0014-2.4884s-0.4495-2.4941-1.0014-2.4941-1.0014-0.89561-1.0014-1.9896c0-1.0997-0.4495-1.9953-1.0014-1.9953-0.5462 0-1.0014-0.44214-1.0014-0.9863 0-2.2957-10.105-12.385-14.253-14.228-1.5134-0.66887-2.7538-1.5588-2.7538-1.9726s-0.8592-0.7539-1.9175-0.7539c-1.0526 0-2.0653-0.34577-2.2474-0.7709-1.3599-3.146-29.501-6.1899-31.242-3.3784m-767.5 45.976c-0.5007 0.48181-6.5375 1.1337-13.416 1.4398-19.203 0.8616-27.322 1.5701-29.513 2.5678-1.0981 0.49882-4.2503 1.128-7.0041 1.3944-2.7482 0.26075-7.2488 0.93528-10.003 1.4908-2.7482 0.5555-7.2545 1.4568-10.003 2.0009-2.7539 0.54417-7.6129 1.6892-10.805 2.5451-3.1919 0.85026-6.8504 1.5475-8.1306 1.5475s-2.8904 0.67454-3.5732 1.4964c-0.6885 0.82192-2.7425 1.4965-4.5689 1.4965s-3.5959 0.4478-3.9373 0.99764c-0.34138 0.54416-1.9402 0.99763-3.5561 0.99763-1.6216 0-2.9473 0.44781-2.9473 0.99197 0 0.54984-1.32 0.99764-2.9416 0.99764-1.6159 0-3.2204 0.4478-3.5561 0.99764-0.34139 0.54983-1.7183 0.99763-3.0611 0.99763s-2.4409 0.44781-2.4409 0.99764c0 0.54417-1.3257 0.99197-2.9473 0.99197-1.6159 0-3.2204 0.45347-3.5561 0.99764-0.34138 0.54983-1.9459 0.99763-3.5618 0.99763-1.6216 0-2.9416 0.44781-2.9416 0.99764 0 0.54984-0.91036 0.99764-2.0142 0.99764-1.1095 0-2.7994 0.40812-3.7552 0.91261-1.5874 0.83325-4.4096 2.069-12.739 5.5664-1.65 0.69155-5.1322 2.2107-7.7438 3.3727-2.6059 1.1564-5.1948 2.1086-5.7524 2.1086-0.55191 0-1.0071 0.47047-1.0071 1.0543 0 0.57817-0.35276 0.83892-0.77381 0.57817-0.42673-0.26074-3.4651 1.06-6.7537 2.9362s-7.6698 4.1323-9.7295 5.0109c-2.0654 0.8786-3.7552 1.9953-3.7552 2.4884 0 0.48748-0.78518 0.8956-1.7468 0.90694-0.96726 0.0113-2.879 0.90127-4.2559 1.9726-1.3712 1.0713-3.2887 1.9613-4.2503 1.9726-0.96157 0.0113-1.7524 0.47048-1.7524 1.0203 0 0.54417-0.58605 0.99197-1.3086 0.99197s-2.1849 0.78791-3.2545 1.7515c-1.064 0.96363-3.0895 2.2617-4.5063 2.8852-1.4111 0.62353-5.1834 2.8625-8.3867 4.9768-3.2033 2.1143-6.5432 4.291-7.4194 4.8408-0.88191 0.54417-2.3385 1.7799-3.2375 2.7378-0.89898 0.96363-2.0256 1.7515-2.5149 1.7572-0.48363 6e-3 -2.8563 1.5758-5.2744 3.4861-2.4181 1.9159-4.7453 3.4804-5.1834 3.4804-0.43242 0-1.3826 0.57251-2.1052 1.2754-0.72829 0.70288-2.7254 2.2617-4.438 3.4577-1.7126 1.2017-4.6372 3.6108-6.5034 5.3566-1.8606 1.7459-5.0639 4.393-7.1065 5.8781-2.0426 1.4851-3.4309 2.9872-3.0838 3.333 0.34707 0.34577-0.11949 0.62919-1.0355 0.62919s-1.6671 0.4478-1.6671 0.99764c0 0.54983-0.47794 0.99763-1.064 0.99763-0.58605 0-2.2019 1.3434-3.5902 2.9872-1.3883 1.6438-2.879 2.9929-3.3114 2.9929-1.1095 0-33.052 31.873-33.052 32.979 0 0.49881-0.44949 0.90694-0.99571 0.90694-0.5519 0-1.0014 0.69721-1.0014 1.5531 0 0.85592-0.4495 1.2754-1.0014 0.93528-0.55191-0.33443-1.0014-0.1077-1.0014 0.51583 0 0.61785-0.56329 1.7005-1.2518 2.4091-0.68846 0.70288-3.0497 3.3954-5.2516 5.9858-2.2019 2.5848-5.2232 6.1219-6.7139 7.8621-1.4907 1.7402-4.9956 6.3032-7.7893 10.141-2.7994 3.8375-5.741 7.7657-6.5432 8.7293-0.80226 0.96362-1.4623 2.2617-1.4623 2.8739s-0.79088 1.8422-1.7581 2.7265c-0.96726 0.88994-2.3897 2.8455-3.1692 4.3533-0.7738 1.5078-1.7866 2.7435-2.2418 2.7435-0.46087 0-0.83071 0.89561-0.83071 1.9953 0 1.094-0.3869 1.9896-0.85915 1.9896-0.91605 0-8.1477 10.645-8.1477 11.989 0 0.44213-0.33569 0.95229-0.75105 1.1337-0.40966 0.18139-2.3214 3.3614-4.2389 7.0628-1.9231 3.6958-3.8349 6.7227-4.2502 6.7227-0.42104 0-0.76243 0.90128-0.76243 1.9953s-0.44949 1.9953-1.0014 1.9953c-0.5519 0-1.0014 0.89561-1.0014 1.9896 0 1.0997-0.44949 1.9953-1.0014 1.9953-0.54622 0-0.99571 0.84459-0.99571 1.8706 0 1.0316-0.67708 2.4317-1.5021 3.112-1.0355 0.85593-1.5021 0.89561-1.5021 0.12471 0-0.64053-1.6955-1.1224-3.943-1.1224-2.1678 0-4.2218-0.4478-4.5575-0.99197-0.34138-0.54983-1.9174-0.99763-3.5049-0.99763-1.5818 0-3.1578-0.44781-3.4992-0.99764-0.34139-0.54983-2.3954-0.99764-4.5632-0.99764s-3.943-0.4478-3.943-0.99763c0-0.54417-2.0256-0.99764-4.5006-0.99764-2.475 0-4.5006-0.36278-4.5006-0.81058 0-0.44214-2.1394-0.91828-4.751-1.0486-2.6173-0.13605-5.1834-0.66887-5.7011-1.1847-0.52346-0.51582-3.5618-0.94095-6.7538-0.94095-3.2033 0-5.8036-0.4478-5.8036-0.99764 0-0.57817-3.3342-0.99764-8.0055-0.99764-4.6656 0-7.9998-0.41379-7.9998-0.99196 0-0.60652-4.5006-0.99764-11.505-0.99764-6.5148 0-11.505-0.40813-11.505-0.93529 0-1.2981-53.728-1.4284-54.178-0.13604-0.19346 0.55551-5.4565 1.0487-12.108 1.1394-6.4749 0.085-12.017 0.5555-12.318 1.0373-0.30156 0.48748-3.6414 0.88426-7.4308 0.88426s-7.1634 0.45348-7.5048 0.99764c-0.3357 0.54984-3.0383 0.99764-6.0027 0.99764-2.9587 0-5.6613 0.4478-6.0027 0.99764-0.33569 0.54983-3.0668 0.99763-6.0596 0.99763-2.9928 0-5.4451 0.44781-5.4451 0.99764 0 0.54417-1.9971 0.99197-4.438 0.99197-2.4466 0-4.7225 0.45347-5.0639 0.99764-0.34138 0.54983-2.3669 0.99763-4.5006 0.99763s-4.1308 0.39679-4.4323 0.88427-2.1337 1.162-4.0625 1.4965c-1.9288 0.33443-5.0866 0.88427-7.0098 1.2187-1.9288 0.33444-3.5049 1.0033-3.5049 1.4908 0 0.49315-0.80795 0.88994-1.798 0.88994-2.9416 0-25.308 7.5446-24.563 8.2872 0.37552 0.37411-0.73967 0.6802-2.4807 0.6802-1.7468 0-3.1692 0.45348-3.1692 0.99764 0 0.54984-1.1266 0.99764-2.5035 0.99764-1.3712 0-2.4978 0.4478-2.4978 0.99764 0 0.54983-1.1266 0.99763-2.5035 0.99763s-2.4978 0.44781-2.4978 0.99764c0 0.54417-1.0981 0.99197-2.4466 0.99197-1.3428 0-2.7197 0.4478-3.0554 0.99764-0.34138 0.54983-1.4964 0.99763-2.5604 0.99763-1.0697 0-1.9459 0.44781-1.9459 0.99764s-0.89898 0.99764-1.9971 0.99764c-1.1038 0-2.0028 0.4478-2.0028 0.99197 0 0.54983-1.3485 0.99763-2.9985 0.99763s-3.0042 0.44781-3.0042 0.99764-0.56328 0.99764-1.2574 0.99764c-1.9857 0-26.992 12.873-27.584 14.199-0.18776 0.41379-0.97295 0.74823-1.7524 0.74823-0.7795 0-1.4168 0.4478-1.4168 0.99764 0 0.54983-0.89899 0.99763-2.0028 0.99763-1.0981 0-2.0028 0.44781-2.0028 0.99764 0 0.54417-0.58604 0.99764-1.3086 0.99764s-2.2816 0.8956-3.4594 1.9896c-1.1835 1.0997-2.805 1.9953-3.6073 1.9953-0.80226 0-1.6102 0.41379-1.7923 0.92395-0.18207 0.50448-0.99002 1.0656-1.798 1.2414-0.80226 0.18139-2.3499 1.111-3.4366 2.069-1.0867 0.95796-2.5718 1.7459-3.2887 1.7459-0.7226 0-1.3143 0.37412-1.3143 0.83892 0 0.45914-1.5761 1.6835-3.4992 2.7208-1.9288 1.0316-3.5049 2.1937-3.5049 2.5791s-0.8876 0.9863-1.9744 1.3264c-1.7695 0.56118-6.7879 4.2343-12.574 9.2111-3.0952 2.6585-8.29 6.2466-9.0524 6.2466-0.36984 0-1.3997 0.80491-2.293 1.7912-0.8876 0.9863-3.0497 2.7888-4.8078 4.0132-1.7581 1.2187-4.7339 3.6674-6.6172 5.4303-1.8833 1.7685-6.4863 5.9065-10.224 9.1941-7.6527 6.7397-24.483 23.206-24.483 23.96 0 0.27209-2.8164 3.3444-6.253 6.8248-3.4366 3.4804-8.051 8.4629-10.253 11.076-2.2019 2.6131-4.4665 5.2489-5.0354 5.8611-0.56897 0.61218-2.1223 2.6812-3.4537 4.6027-1.3314 1.9159-3.118 4.1606-3.9714 4.9825-0.84778 0.82192-1.6671 2.086-1.8207 2.8115-0.14793 0.71989-1.2745 2.3354-2.4978 3.5881-3.7837 3.8658-6.731 7.5333-6.731 8.3722 0 0.43647-0.79088 1.6665-1.7524 2.7322-0.96157 1.06-2.384 3.1573-3.1578 4.6538-0.7795 1.4964-2.1507 3.5201-3.0554 4.4837-0.89898 0.9693-2.7425 3.7808-4.0909 6.2466-1.3485 2.4658-2.6742 4.7104-2.953 4.9825-0.27311 0.27775-1.138 1.7345-1.9174 3.2423s-1.7923 2.7378-2.2475 2.7378c-0.46087 0-0.83639 0.90128-0.83639 1.9953s-0.36414 1.9953-0.81364 1.9953c-0.4438 0-1.4281 1.5702-2.1849 3.4861-0.75674 1.9159-1.6728 3.4861-2.0369 3.4861-0.36414 0-1.4736 1.7969-2.4637 3.9905-0.9957 2.1937-2.2133 3.9849-2.714 3.9849s-0.64863 0.4138-0.3357 0.91828c0.30725 0.50449-0.11379 1.5928-0.9445 2.4204-0.8307 0.82758-1.5078 2.205-1.5078 3.0666 0 0.86159-0.4495 1.5701-1.0014 1.5701-0.55191 0-1.0014 0.65754-1.0014 1.4624s-0.89898 3.0609-2.0028 5.0109c-1.0981 1.9556-1.9971 4.2116-1.9971 5.0165 0 0.80492-0.44949 1.4624-1.0014 1.4624s-1.0014 0.90127-1.0014 1.9953-0.44949 1.9953-1.0014 1.9953c-0.54621 0-1.0014 1.1167-1.0014 2.4884s-0.4495 2.4941-0.99571 2.4941c-0.55191 0-1.0014 0.81059-1.0014 1.8026 0 1.6382-2.5718 7.9471-5.0411 12.385-0.52915 0.95229-0.96157 2.4147-0.96157 3.2537 0 1.5418-0.35845 2.3977-3.448 8.2702-0.95019 1.8139-1.4793 3.9395-1.1721 4.7331 0.30724 0.79925 0.21052 1.4454-0.20484 1.4454-0.42104 0-1.6159 2.5791-2.6571 5.7308-1.0355 3.1516-2.2019 6.1785-2.5775 6.7284-0.38121 0.54983-0.93881 2.341-1.2404 3.9849-0.29587 1.6438-1.0754 4.7841-1.724 6.9778-0.65432 2.1937-1.4111 5.6684-1.6899 7.726-0.2788 2.052-0.85916 3.7355-1.2916 3.7355-0.74536 0-1.2688 2.5224-2.6344 12.709-0.31293 2.3297-0.97295 4.2343-1.468 4.2343-0.49501 0-0.89899 2.2447-0.89899 4.9825 0 2.7435-0.45518 4.9825-1.0014 4.9825-0.55759 0-1.0014 2.6415-1.0014 5.9235 0 3.2537-0.44949 6.1956-1.0014 6.5357-0.55191 0.3401-1.0014 3.7298-1.0014 7.5333s-0.42104 6.9154-0.93312 6.9154c-2.0483 0-4.0909 88.081-2.0938 90.071 0.56328 0.56684 1.0298 5.1696 1.0298 10.237 0 5.0619 0.4495 9.4832 0.99571 9.8233 0.55191 0.3401 1.0014 3.9169 1.0014 7.9471 0 4.0359 0.40966 7.4823 0.90467 7.6693 0.49501 0.18139 1.0583 3.0439 1.2461 6.3656l0.3357 6.0368-6.9927 6.4053c-12.21 11.167-36.511 36.448-36.511 37.978 0 0.47048-0.74536 0.85026-1.6671 0.85026-0.91605 0-1.4224 0.24374-1.1209 0.54416 0.51208 0.51016-2.9758 4.9598-7.9657 10.158-1.2347 1.2924-2.2474 2.5961-2.2474 2.8966 0 0.3061-1.3542 1.8082-3.0042 3.3444-1.65 1.5361-2.9985 3.2196-2.9985 3.7411 0 0.5215-1.3542 2.3524-3.0042 4.0756s-2.9985 3.4861-2.9985 3.9282c0 0.43647-1.5761 2.4601-3.4992 4.495-1.9231 2.0293-3.2204 3.6958-2.879 3.6958 0.3357 0-1.0128 1.9783-3.0042 4.3987-1.9914 2.4261-3.6244 4.6424-3.6244 4.9372 0 0.28909-1.4623 2.6131-3.2489 5.1639-1.7923 2.5508-3.704 5.3793-4.2559 6.2806-0.54622 0.90127-1.2233 1.8649-1.4964 2.1426-0.99002 0.98063-4.1365 6.513-4.6827 8.2192-0.30156 0.95796-0.95019 1.7459-1.4395 1.7459-0.48363 0-0.88191 0.66887-0.88191 1.4964 0 0.82192-0.35276 1.4908-0.78519 1.4908s-2.1223 2.4658-3.7496 5.4813c-1.633 3.0099-3.3058 5.4757-3.7211 5.4813-0.40966 0-0.74536 0.81625-0.74536 1.8082s-0.90467 2.7662-2.0028 3.9452c-1.0981 1.1734-2.0028 2.8285-2.0028 3.6731s-0.44949 1.5361-1.0014 1.5361c-0.54622 0-0.99571 0.90128-0.99571 1.9953s-0.36414 1.9953-0.80226 1.9953c-0.43811 0-1.4054 1.6778-2.1394 3.7355-0.73967 2.0576-1.6216 3.9622-1.9687 4.2343-0.34139 0.27775-1.6785 2.7435-2.9701 5.4813-1.2859 2.7435-2.7482 5.7648-3.2375 6.717-0.48932 0.95229-0.8876 2.4091-0.8876 3.2367 0 0.8332-0.44949 1.5078-1.0014 1.5078-0.55191 0-1.0014 0.9012-1.0014 1.9952s-0.41535 1.9953-0.92174 1.9953c-0.50639 0-1.4736 1.6779-2.1394 3.7355-1.0981 3.3783-6.7196 16.093-9.024 20.418-0.50639 0.9523-0.92174 2.6358-0.92174 3.7355 0 1.1053-0.44949 2.0066-0.99571 2.0066-0.55191 0-1.0014 1.3491-1.0014 2.9929 0 1.6439-0.44949 2.9873-1.0014 2.9873-0.55191 0-1.0014 1.094-1.0014 2.4317 0 1.3378-0.44949 2.7152-1.0014 3.0496-0.54622 0.3401-1.0014 1.9386-1.0014 3.5484s-0.44949 2.9306-0.99571 2.9306c-0.55191 0-1.0014 1.3491-1.0014 2.9929s-0.44949 2.9872-1.0014 2.9872-1.0014 1.5702-1.0014 3.4861c0 1.9216-0.44949 3.4917-1.0014 3.4917-0.54622 0-1.0014 1.3208-1.0014 2.9306s-0.44949 3.2083-0.99571 3.5484c-0.55191 0.3344-1.0014 1.9329-1.0014 3.5427 0 1.6155-0.44949 2.9363-1.0014 2.9363s-1.0014 1.4908-1.0014 3.3216c0 1.8253-0.31863 3.6392-0.71691 4.0303-0.92743 0.9296-2.8392 8.0548-4.8477 18.06-0.88191 4.3873-1.8549 8.6443-2.1678 9.4662-0.30725 0.8219-0.75105 3.7298-0.98433 6.462-0.22759 2.7321-0.79088 5.1979-1.2461 5.4813-0.80226 0.4988-1.4452 5.0959-2.6571 18.955-0.31294 3.5654-1.0754 7.0912-1.7012 7.8451-0.79657 0.9636-1.229 16.365-1.468 52.325-0.31863 48.329 0.20483 64.166 2.7652 83.348 0.54622 4.1096 1.2461 9.9424 1.5533 12.952 0.31294 3.0156 0.95588 6.3826 1.4395 7.4766s1.1323 3.7865 1.4452 5.9802c0.31863 2.1936 1.0469 6.2295 1.6273 8.9674 0.57467 2.7435 1.4111 7.0061 1.8606 9.4719 0.4438 2.4657 1.32 5.7477 1.9516 7.2895 0.63156 1.5418 1.1493 3.9225 1.1493 5.2886 0 1.4058 0.43242 2.222 0.99571 1.8706 0.6088-0.3685 1.0014 0.9863 1.0014 3.4294 0 2.2276 0.44949 4.0472 1.0014 4.0472s1.0014 1.5701 1.0014 3.4861c0 1.9215 0.44949 3.4917 1.0014 3.4917 0.54622 0 0.99571 1.5418 0.99571 3.4294 0 1.8819 0.45518 3.7071 1.0014 4.0415 0.55191 0.3401 1.0014 1.6835 1.0014 2.9929 0 1.3038 0.44949 2.6529 1.0014 2.9873 0.55191 0.3401 1.0014 1.9386 1.0014 3.5484s0.44949 2.9306 1.0014 2.9306c0.54622 0 0.99571 1.1223 0.99571 2.4941 0 1.366 0.45518 2.4884 1.0014 2.4884 0.55191 0 1.0014 1.3491 1.0014 2.9929s0.44949 2.9872 1.0014 2.9872c0.55191 0 1.0014 1.3491 1.0014 2.9929 0 1.6439 0.44949 2.9873 1.0014 2.9873 0.54622 0 0.99571 1.1223 0.99571 2.4941 0 1.3661 0.44949 2.4884 1.0014 2.4884 0.55191 0 1.0014 0.6235 1.0014 1.3831 0 2.222 9.1776 23.535 10.133 23.535 0.47794 0 0.87053 0.8956 0.87053 1.9952 0 1.094 0.44949 1.9896 1.0014 1.9896 0.55191 0 1.0014 0.8843 1.0014 1.9613 0 1.0827 0.89898 3.5654 1.9971 5.5153 1.1038 1.95 2.0028 4.206 2.0028 5.0109s0.3357 1.4681 0.75105 1.4738c0.89898 0.011 3.2489 4.8351 3.2489 6.6717 0 0.7085 0.34139 1.2924 0.75674 1.2924 0.41535 0 2.3271 3.3557 4.2503 7.4539 1.9231 4.1039 3.8349 7.4653 4.2503 7.4766 0.40966 0.011 0.75105 0.4988 0.75105 1.0827 0 0.5838 1.1209 2.5338 2.4978 4.3306 1.3769 1.7969 2.5035 3.8092 2.5035 4.4781 0 0.6632 0.44949 0.9353 1.0014 0.5952 0.54622-0.3402 0.99571 0.306 0.99571 1.4341 0 1.128 0.44949 2.0519 1.0014 2.0519s1.0014 0.924 1.0014 2.052 0.44949 1.7742 1.0014 1.4397c0.55191-0.3401 1.0014 0.3061 1.0014 1.4341 0 1.1281 0.39259 2.052 0.87622 2.052 0.48363 0 1.4395 1.3434 2.1223 2.9872 0.68277 1.6495 1.6387 2.993 2.1223 2.993 0.48363 0 0.88191 0.7312 0.88191 1.6268s0.79088 2.3524 1.7524 3.2366c0.96726 0.89 2.3954 2.8456 3.1749 4.3534 0.77381 1.5078 1.7866 2.7435 2.2418 2.7435s0.84208 0.5611 0.85346 1.247c0.01138 0.6802 0.92743 2.3637 2.0312 3.7355 1.1095 1.3717 3.6187 4.8465 5.576 7.726 1.963 2.8739 3.9771 5.2319 4.4722 5.2319s0.90467 0.5725 0.90467 1.2754c0 0.6972 0.89898 1.9216 2.0028 2.7095 1.0981 0.7879 1.9971 2.0123 1.9971 2.7095 0 0.7029 0.44949 1.2754 1.0014 1.2754s1.0014 0.4705 1.0014 1.0373c0 0.5725 0.93312 2.0293 2.0711 3.2423 1.1436 1.2074 3.0554 3.4577 4.2559 4.9939 3.9259 5.0448 5.6841 7.0798 12.978 14.998 17.115 18.592 25.78 27.463 32.756 33.534 2.8335 2.4657 8.2843 7.3802 12.108 10.923 3.8235 3.5428 8.0624 7.1649 9.4279 8.0548 1.3598 0.89 3.3114 2.4771 4.3299 3.5314 2.9644 3.044 6.0482 5.3964 7.0838 5.3964 0.83071 0 5.2972 3.6787 11.123 9.1657 0.99001 0.9297 3.0611 2.3468 4.603 3.146 1.5419 0.7992 4.1535 2.6188 5.8036 4.0359 1.65 1.4228 3.4651 2.5848 4.034 2.5905 0.56329 0 1.6785 0.8956 2.4694 1.9896 0.79087 1.0996 2.2418 1.9952 3.2204 1.9952s1.7809 0.3741 1.7809 0.8276c0 0.4592 1.2404 1.4681 2.7538 2.2447s3.6244 2.1993 4.6884 3.1573c1.064 0.958 2.532 1.7459 3.2489 1.7459 0.7226 0 1.3143 0.3684 1.3143 0.8275 0 0.4535 1.2404 1.4398 2.7482 2.188 1.5135 0.7539 4.1592 2.3808 5.8832 3.6165 1.7183 1.2357 3.4082 1.9726 3.7496 1.6268 0.34139-0.3401 0.62588-0.1644 0.62588 0.3911s1.798 1.8196 3.9999 2.8116c2.2019 0.9863 3.9999 2.0916 3.9999 2.4204 0 0.3967 1.5761 1.3094 3.5049 2.0633 1.9231 0.7538 3.4992 1.7345 3.4992 2.1766 0 0.4478 0.45518 0.8106 1.0128 0.8106 1.5192 0 10.441 4.274 10.828 5.1866 0.18207 0.4364 1.1948 0.7935 2.2475 0.7935 1.0583 0 1.9174 0.4479 1.9174 0.9977s0.89899 0.9976 2.0028 0.9976c1.0981 0 2.0028 0.4478 2.0028 0.9977 0 0.5441 0.89898 0.9976 1.9971 0.9976 1.1038 0 2.0028 0.4478 2.0028 0.992 0 0.5498 0.87053 0.9976 1.9402 0.9976 1.0697 0 2.219 0.4478 2.5604 0.9976 0.34139 0.5499 1.4395 0.9977 2.4352 0.9977 1.0014 0 2.3726 0.6575 3.0383 1.4624 0.67139 0.8049 1.5533 1.3661 1.963 1.2471 0.40966-0.1191 4.0796 1.3037 8.1591 3.1629 4.0739 1.8593 8.4265 3.7638 9.6669 4.2343 4.1365 1.5702 7.7324 3.0723 9.4905 3.9622 0.95019 0.4818 2.4238 0.8786 3.2602 0.8786 0.84209 0 2.4238 0.4478 3.5163 0.9977 1.0924 0.5498 2.8847 1.4454 3.9771 1.9952 1.0924 0.5442 2.8676 0.9977 3.943 0.9977 1.0754 0 2.2304 0.4478 2.5718 0.9919 0.34138 0.5499 1.6899 0.9977 2.9985 0.9977 1.3143 0 2.6628 0.4478 3.0042 0.9976 0.34138 0.5499 2.1678 0.9977 4.0625 0.9977 1.889 0 3.4423 0.4478 3.4423 0.9976 0 0.5442 1.5704 0.992 3.4992 0.992 1.9231 0 3.4992 0.4534 3.4992 0.9976 0 0.5498 1.3542 0.9976 3.0042 0.9976s2.9985 0.4478 2.9985 0.9977c0 0.5498 1.7638 0.9976 3.9202 0.9976s4.0682 0.4535 4.2559 1.009c0.18776 0.5612 1.7866 1.196 3.5561 1.4228 1.7695 0.221 3.6187 0.6518 4.1023 0.9466 0.48932 0.3004 2.8221 0.7879 5.1948 1.0883 2.3669 0.2948 4.7965 0.9296 5.3939 1.4114 0.59742 0.4818 2.8904 1.1224 5.0923 1.4341 2.2019 0.3061 6.475 1.06 9.5019 1.6722 3.027 0.6122 7.7552 1.3548 10.503 1.6495 2.7538 0.2891 5.4508 0.8729 6.0027 1.2867s3.9146 0.8446 7.4764 0.9523c3.5561 0.1134 6.9358 0.5895 7.5048 1.06 1.0697 0.8843 7.1919 1.3944 35.538 2.9703 37.251 2.0746 42.087 2.2163 43.293 1.2867 0.6714-0.5272 8.6371-1.06 17.701-1.1847s17.246-0.6405 18.19-1.1394c0.9445-0.5044 5.5475-0.9182 10.23-0.9182 4.677 0 8.785-0.4478 9.1264-0.9977 0.34138-0.5441 3.4935-0.9976 7.0041-0.9976s6.6627-0.4478 6.9984-0.992c0.34138-0.5498 3.044-0.9976 6.0027-0.9976 2.9644 0 5.667-0.4478 6.0027-0.9977 0.34139-0.5498 2.2475-0.9976 4.2446-0.9976 1.9914 0 5.0013-0.4138 6.6912-0.9126 7.0439-2.103 20.318-5.1923 23.533-5.4813 1.9004-0.1701 3.6301-0.822 3.8349-1.4398 0.21052-0.6235 2.145-1.1337 4.3015-1.1337 2.1507 0 3.9146-0.4478 3.9146-0.9976 0-0.5499 1.5476-0.9977 3.4423-0.9977s3.7211-0.4478 4.0625-0.9976c0.34138-0.5442 1.9402-0.9976 3.5618-0.9976 1.6159 0 2.9416-0.4478 2.9416-0.992 0-0.5498 1.3485-0.9976 2.9985-0.9976s3.0042-0.4478 3.0042-0.9977c0-0.5498 1.2574-0.9976 2.7994-0.9976 1.5419 0 3.2261-0.3685 3.7496-0.8219 3.8975-3.3727 12.973-3.4237 10.885-0.057-0.24466 0.3911 0.0854 0.8843 0.7226 1.094 0.64294 0.2154 1.32 1.3944 1.5078 2.6188 0.18776 1.23 1.2404 3.197 2.3442 4.3703 1.0981 1.179 1.9971 2.6415 1.9971 3.248 0 1.6892 2.4011 6.4733 3.2546 6.4846 0.40966 0.01 0.75105 0.9013 0.75105 2.001 0 1.094 0.44949 1.9896 1.0014 1.9896 0.54622 0 0.99571 0.8616 0.99571 1.9102 0 1.0544 0.34139 2.0633 0.75105 2.2447 0.41535 0.1814 1.8378 2.4658 3.1578 5.0676 1.3257 2.6018 2.7083 4.7331 3.0668 4.7331 0.35845 0 1.2745 1.5701 2.0312 3.486 0.75674 1.9216 1.7411 3.4918 2.1849 3.4918 0.44949 0 0.81364 0.4761 0.81364 1.06 0 0.5838 1.1266 2.5337 2.5035 4.3306 1.3769 1.7969 2.5035 3.6731 2.5035 4.1719 0 0.4932 1.3485 2.4715 2.9985 4.3874 1.65 1.9216 2.9985 4.0529 2.9985 4.7331 0 0.6859 0.39828 1.247 0.88191 1.247s1.4395 1.3491 2.1223 2.9929c0.68277 1.6439 1.6386 2.9873 2.1223 2.9873s0.87622 0.6745 0.87622 1.4964c0 0.822 0.4495 1.4965 1.0014 1.4965 0.55191 0 1.0014 0.6349 1.0014 1.4114 0 0.7766 0.36415 1.5588 0.80795 1.7402 0.4438 0.1871 2.3271 2.5791 4.182 5.317 1.8549 2.7435 3.9714 5.3453 4.694 5.7817 0.72829 0.4365 1.32 1.2811 1.32 1.8763s0.78519 1.8025 1.7524 2.6925c0.96157 0.8899 2.8563 3.1799 4.2161 5.1015 2.6059 3.6788 6.0653 7.7714 9.7864 11.564 1.2404 1.2641 2.2531 2.5395 2.2531 2.8399s0.78519 1.3944 1.7524 2.4374c0.96157 1.043 5.576 6.0368 10.253 11.104 13.65 14.783 24.796 25.87 26.008 25.87 0.61449 0 0.84208 0.4478 0.5007 0.9977-0.34139 0.5441-0.25604 1.0033 0.19345 1.0089 0.4438 0.01 2.8335 1.8139 5.3086 4.0189 2.475 2.1994 4.9501 4.3817 5.502 4.8465 0.5519 0.4648 1.724 1.6835 2.6116 2.7095 1.9573 2.273 5.7011 5.3566 6.5034 5.3566 0.32432 0 1.7809 1.2527 3.2375 2.7946 1.4623 1.5361 4.6827 4.1832 7.1577 5.8837 2.475 1.7006 5.4963 4.0303 6.7082 5.181 1.2176 1.145 2.9018 2.0859 3.7552 2.0859 0.84777 0 1.5419 0.6405 1.5419 1.4285 0 0.7822 0.85916 1.6948 1.9061 2.0292 1.0469 0.3345 2.1621 1.2584 2.4694 2.0633 0.30725 0.7993 1.138 1.4568 1.8435 1.4568 0.70553 0.01 2.6344 1.2357 4.2844 2.7435 1.65 1.5021 4.2389 3.3727 5.7524 4.1493 1.5135 0.7765 2.7482 1.7855 2.7482 2.2447 0 0.4534 0.59173 0.8275 1.3143 0.8275s2.2759 0.8957 3.4594 1.9897c1.1778 1.0996 2.6344 1.9952 3.2318 1.9952 0.59742 0 2.0483 0.8956 3.2318 1.9953 1.1778 1.094 2.7368 1.9896 3.4594 1.9896s1.3086 0.4535 1.3086 0.9976c0 0.5499 0.67709 0.9977 1.5021 0.9977 0.82502 0 1.5021 0.4478 1.5021 0.9976 0 0.5499 0.48363 0.9977 1.0697 0.9977 0.59174 0 1.7524 0.6745 2.5832 1.5021 0.83071 0.8276 1.9231 1.247 2.4295 0.9409 0.50639-0.3117 0.92174-0.1473 0.92174 0.3741 0 0.5159 1.4623 1.6836 3.2489 2.5905 1.7866 0.9069 5.0525 2.7605 7.2544 4.1209 2.2019 1.3604 5.4622 3.2197 7.2544 4.1323 1.7866 0.9126 3.2488 2.0236 3.2488 2.4657 0 0.4478 0.66001 0.8163 1.468 0.8163 0.81364 0 3.0782 0.8956 5.0354 1.9896 1.9573 1.0997 4.2502 1.9953 5.0923 1.9953 0.84208 0 1.2517 0.4478 0.91036 0.9976-0.35277 0.5668 0.48932 0.9976 1.9402 0.9976 1.4111 0 2.5604 0.4478 2.5604 0.992 0 0.5498 0.89898 0.9976 2.0028 0.9976 1.0981 0 1.9971 0.4478 1.9971 0.9977 0 0.5498 0.90467 0.9976 2.0028 0.9976 1.0981 0 2.0028 0.4478 2.0028 0.9977 0 0.5441 0.87054 0.9976 1.9402 0.9976 1.0697 0 2.219 0.4478 2.5604 0.992 0.34139 0.5498 1.4907 0.9976 2.5604 0.9976 1.064 0 1.9402 0.4478 1.9402 0.9976 0 0.5499 0.47225 0.9977 1.0469 0.9977s4.4096 1.5701 8.5233 3.486c4.1137 1.9216 8.1477 3.4918 8.9614 3.4918 0.81363 0 1.4793 0.3627 1.4793 0.8162 0 0.4478 2.2759 1.4341 5.0639 2.188 2.7823 0.7596 5.2858 1.7345 5.5589 2.1767 0.27311 0.4364 1.5704 0.7992 2.879 0.7992 1.3086 0 2.6628 0.4478 3.0042 0.992 0.3357 0.5498 1.6386 0.9976 2.8904 0.9976s2.5832 0.3061 2.9644 0.6859c1.1095 1.1053 7.96 3.2707 10.401 3.2877 1.2347 0.01 2.2475 0.4648 2.2475 1.0089 0 0.5499 1.1323 0.9977 2.5149 0.9977s3.3 0.3968 4.2559 0.8729c3.1351 1.5815 8.8305 3.1176 11.562 3.1176 1.4737 0 2.6799 0.4478 2.6799 0.992 0 0.5498 1.155 0.9976 2.5661 0.9976 1.411 0 3.5105 0.5045 4.6599 1.1167 3.704 1.9726 30.275 7.5446 47.293 9.914 32.056 4.4667 45.205 5.1072 94.353 4.6198 30.412-0.3061 43.675-0.7709 44.471-1.5645 0.6315-0.6349 4.3128-1.128 8.3753-1.128 3.9828 0 7.5219-0.4478 7.8632-0.9977 0.3414-0.5498 3.2034-0.9976 6.3612-0.9976s6.1677-0.4138 6.6912-0.9183c0.5234-0.5045 3.2033-1.0316 5.9514-1.162 2.7539-0.136 5.4622-0.5838 6.0198-1.0033 0.5576-0.4138 2.8108-0.9523 5.0013-1.1904 2.1963-0.238 4.6656-0.7028 5.4906-1.0259s4.8249-1.2528 8.8874-2.0633c4.0625-0.8106 7.869-1.9556 8.455-2.5395 0.5861-0.5838 2.549-1.06 4.3641-1.06 1.815 0 3.3-0.4478 3.3-0.9976 0-0.5442 1.5476-0.992 3.4423-0.992s3.7211-0.4534 4.0625-0.9976c0.3414-0.5498 2.1678-0.9977 4.0625-0.9977 1.889 0 3.4423-0.4478 3.4423-0.9976s1.3485-0.9976 2.9985-0.9976c1.6501 0 2.9985-0.4478 2.9985-0.9977 0-0.5441 1.5761-0.9919 3.5049-0.9919 1.9232 0 3.4992-0.4535 3.4992-0.9977 0-0.5498 0.7909-1.0033 1.7525-1.0146 2.0483-0.017 8.9044-2.2957 9.9002-3.2877 0.3812-0.3741 1.5191-0.6802 2.5319-0.6802 1.0185 0 2.6344-0.3968 3.5902-0.8843 1.6501-0.8332 5.3484-2.4204 9.7352-4.1662 1.1038-0.4422 3.8065-1.3888 6.0027-2.1087 2.202-0.7142 4.2275-1.5531 4.5063-1.8535 0.2731-0.3061 3.1977-1.7912 6.4977-3.3104 3.3058-1.5134 6.7879-3.1743 7.7438-3.6901 0.9559-0.5101 2.4181-0.9296 3.2488-0.9296s1.5135-0.4535 1.5135-0.9976c0-0.5499 0.899-0.9977 2.0028-0.9977 1.0981 0 2.0028-0.4478 2.0028-0.9976 0-0.5499 1.0867-0.9977 2.4125-0.9977 1.3314 0 2.5717-0.3344 2.7538-0.7482 0.1821-0.4081 3.0326-2.12 6.3384-3.8035 13.069-6.6547 19.021-9.931 19.34-10.645 0.1821-0.4138 1.155-0.7482 2.1678-0.7482 1.0071 0 1.98-0.3515 2.1678-0.7823 0.1821-0.4308 2.5775-2.086 5.3199-3.6674 2.7425-1.5872 5.8662-3.7015 6.9415-4.6991 1.0754-0.9977 2.5434-1.8139 3.266-1.8139s1.3086-0.3628 1.3086-0.8106 1.559-1.4171 3.4594-2.1597c1.9004-0.7425 3.2261-1.7231 2.9416-2.1823-0.2845-0.4535 0.4096-0.8276 1.5476-0.8276 1.1323 0 2.0597-0.3344 2.0654-0.7482 0-0.4081 2.475-2.3184 5.4963-4.2343s5.4906-3.8262 5.4963-4.2343c0-0.4138 0.4893-0.7482 1.0867-0.7482 1.0299 0 9.7523-6.564 11.032-8.3099 0.3357-0.4534 1.0128-0.8786 1.5021-0.9409 0.9388-0.1134 2.31-1.1054 5.4622-3.9566 1.0583-0.9579 2.2816-1.7402 2.7083-1.7402s1.4281-0.9012 2.219-1.9952c0.7966-1.0997 1.815-1.9953 2.2645-1.9953 0.4552 0 1.815-0.9296 3.0327-2.0633 1.2119-1.1393 3.4992-3.0439 5.0809-4.2343 1.5761-1.196 4.3868-3.5938 6.2474-5.3283 1.8605-1.7345 3.3854-2.9872 3.3854-2.7832 0 0.2041 3.5618-3.0836 7.9144-7.3065 4.3584-4.2286 11.448-11.082 15.761-15.242 4.3071-4.155 11.214-11.258 15.34-15.786s8.0681-8.8314 8.7565-9.5682c0.6828-0.7313 1.2461-1.6042 1.2461-1.9386 0-0.3345 1.6898-2.3014 3.7552-4.3704 2.0597-2.0689 4.4267-4.8011 5.2517-6.0765s2.401-3.265 3.5049-4.4213c1.0981-1.1564 3.5731-4.121 5.4906-6.5924 1.9231-2.4657 3.8349-4.631 4.2502-4.8124 0.4154-0.1871 0.7568-0.9353 0.7568-1.6665 0-0.7256 0.3641-1.4738 0.8079-1.6609 1.0526-0.4308 7.1976-9.4038 7.1976-10.504 0-0.4648 0.8989-1.4965 2.0028-2.2844 1.0981-0.7879 1.9971-2.1256 1.9971-2.9759 0-0.8446 1.1208-2.3694 2.4807-3.3897 1.3655-1.0203 2.2588-2.222 1.9857-2.6585-0.2731-0.4421-0.034-1.0883 0.5292-1.4397 1.2972-0.7936 8.0112-11.189 8.0112-12.397 0-0.4875 0.3357-1.043 0.751-1.2244 0.9388-0.4138 4.1877-5.7251 4.9273-8.0548 0.3073-0.9636 0.9559-1.7458 1.4395-1.7458 0.4894 0 0.8877-0.8956 0.8877-1.9953 0-1.094 0.3641-1.9896 0.8136-1.9896 0.4438 0 1.4281-1.5702 2.1849-3.4917 0.7567-1.916 1.6272-3.4861 1.9459-3.4861 0.3129 0 1.1948-1.4568 1.9572-3.2367 0.7625-1.7855 1.9687-3.9168 2.6742-4.7387 0.7056-0.8219 1.2802-1.8479 1.2802-2.2844-0.01-3.0269 4.3015-7.6807 7.1122-7.6807 1.6728 0 3.0384 0.4478 3.0384 0.9977 0 0.5498 1.485 0.9976 3.3 0.9976s3.8178 0.5158 4.4494 1.145c0.6373 0.6292 2.6401 1.2924 4.4551 1.4681 1.815 0.1758 5.7751 1.06 8.802 1.967 3.027 0.9012 7.0781 1.8365 9.0069 2.0803 1.9232 0.2437 4.3982 0.8219 5.502 1.298 1.0982 0.4705 4.0227 1.1564 6.4977 1.5192 2.4808 0.3627 7.2033 1.0996 10.509 1.6325 3.3001 0.5328 8.9273 1.2017 12.5 1.4851 3.5789 0.2891 6.9302 0.9353 7.4536 1.4398 0.5235 0.4988 4.6599 0.9126 9.1947 0.9126 4.5347 0 8.5005 0.4081 8.8077 0.9069 0.313 0.4988 7.7836 0.9636 16.608 1.0373 8.8192 0.068 17.104 0.5328 18.406 1.026 1.303 0.4931 7.4764 0.7369 13.718 0.5385 18.6-0.5895 38.025-1.5078 43.362-2.0576 2.7482-0.2778 9.0524-0.941 14.002-1.4681 4.9558-0.5215 11.931-1.2017 15.51-1.5078 3.5732-0.3005 7.4024-0.9467 8.5005-1.4341 1.0981-0.4819 4.0284-1.1394 6.5034-1.4511 2.475-0.3118 6.7537-0.9863 9.5019-1.4908 2.7538-0.5102 7.0269-1.2414 9.5076-1.6325 2.475-0.3912 4.9501-1.0373 5.502-1.4341 0.5462-0.3968 2.9814-1.026 5.4053-1.3945 2.4238-0.3741 4.8818-0.9693 5.4678-1.3264 0.5861-0.3627 2.3271-0.7142 3.8748-0.7879 1.5419-0.074 3.3342-0.6575 3.9828-1.3037 0.6486-0.6405 2.4068-1.1677 3.9145-1.1677 1.5078 0 3.0213-0.4478 3.3627-0.9976 0.3414-0.5499 2.1678-0.9977 4.0625-0.9977 1.889 0 3.4423-0.4478 3.4423-0.9976 0-0.5442 1.5476-0.9976 3.4423-0.9976 1.889 0 3.7211-0.4478 4.0568-0.992 0.3414-0.5498 1.7183-0.9976 3.0611-0.9976s2.4409-0.4478 2.4409-0.9977c0-0.5498 1.3542-0.9976 3.0042-0.9976s2.9985-0.4478 2.9985-0.9977c0-0.5441 1.3542-0.9919 3.0042-0.9919s2.9985-0.4535 2.9985-0.9977c0-0.5498 1.3541-0.9976 3.0042-0.9976 1.65 0 2.9985-0.4478 2.9985-0.9976 0-0.5499 1.0981-0.9977 2.4409-0.9977s2.7254-0.4478 3.0611-0.9976c0.3414-0.5442 1.6273-0.992 2.8619-0.992 1.2347 0 2.6685-0.3798 3.192-0.8446 0.5234-0.4648 4.7794-2.3297 9.4564-4.1436 4.677-1.8195 9.2117-3.9055 10.082-4.6424 0.8649-0.7312 2.3271-1.332 3.2489-1.332 0.9217 0 1.6728-0.4535 1.6728-0.9977 0-0.5498 0.899-0.9976 2.0028-0.9976 1.0981 0 1.9971-0.4478 1.9971-0.9977 0-0.5498 0.6827-0.9976 1.5135-0.9976 0.8363 0 2.2986-0.4251 3.2545-0.9466s5.337-2.7038 9.7409-4.8465c7.2544-3.5314 24.25-12.317 29.797-15.401 1.2177-0.6746 2.5718-1.7912 3.0156-2.4771 0.4381-0.6802 1.3656-1.2414 2.0597-1.2414 0.6942 0 2.1564-0.7879 3.2546-1.7458 1.8605-1.6325 2.9416-2.3184 8.6313-5.4814 1.229-0.6859 2.9701-2.0293 3.8691-2.9929 0.8933-0.958 2.3612-1.7402 3.2602-1.7402s1.633-0.3741 1.633-0.8276c0-0.4591 1.2346-1.4681 2.7481-2.2447 1.5135-0.7765 3.5504-2.1256 4.5234-2.9985 0.9672-0.873 2.9871-2.2164 4.4835-2.993 2.8847-1.4851 6.0653-3.9508 9.8547-7.6296 1.2688-1.2357 2.6855-2.2447 3.1464-2.2447 0.4552 0 2.8221-1.7912 5.2573-3.9849 2.4296-2.1936 4.7965-3.9905 5.2574-3.9905 0.4552 0 1.8833-1.009 3.1692-2.239 1.2802-1.2357 4.2787-3.8149 6.657-5.7308 2.3783-1.9216 6.3327-5.3963 8.7907-7.726s4.842-4.2343 5.3028-4.2343c0.4552 0 0.8307-0.6745 0.8307-1.4964 0-0.822 0.3926-1.4908 0.8649-1.4908 2.0199 0 23.863-21.217 29.467-28.625 1.7524-2.3127 3.8235-4.2173 4.603-4.2343s1.1209-0.3231 0.7681-0.6802c-0.6657-0.6575 4.2104-5.3283 5.5646-5.3283 0.4153-0.01 0.7567-0.5668 0.7624-1.247 0.01-0.6859 1.9175-3.3331 4.2503-5.8895 5.3256-5.8214 6.6741-7.4596 9.7124-11.802 1.3371-1.9216 3.2488-4.2173 4.2332-5.1016 0.99-0.8842 1.7979-2.1313 1.7979-2.7718s1.5761-2.6018 3.5049-4.359c1.9232-1.7629 3.4992-3.5597 3.4992-4.0019 0-0.9636 8.1933-12.034 9.2573-12.504 0.4096-0.1813 0.7453-1.094 0.7453-2.0236s0.9047-2.3353 2.0028-3.1233c1.1038-0.7935 2.0028-2.0292 2.0028-2.7548 0-0.7255 0.899-2.2787 1.9971-3.4577 1.1038-1.1734 2.0028-2.7265 2.0028-3.4464s0.4495-1.3037 1.0014-1.3037 1.0014-0.4818 1.0014-1.0657c0-0.5895 1.4566-3.1686 3.2375-5.7307 1.7809-2.5678 3.1294-5.0052 2.9985-5.4133-0.1309-0.4138 0.1935-0.7483 0.7169-0.7483 0.5235 0 1.7411-1.6835 2.7026-3.7354 0.9559-2.0577 1.9972-3.9622 2.3101-4.24 0.3129-0.2721 1.6842-2.7378 3.0497-5.4813 1.3712-2.7379 2.8278-5.1299 3.2432-5.3113 0.4096-0.1871 0.7453-1.196 0.7453-2.2447s0.3414-1.9159 0.7511-1.9159c0.899-0.011 3.2545-4.8352 3.2545-6.6717 0-0.7142 0.4495-1.2981 0.9957-1.2981 0.5519 0 1.0014-0.8956 1.0014-1.9896 0-1.0997 0.4495-1.9953 1.0014-1.9953s1.0014-0.8956 1.0014-1.9952c0-1.094 0.4495-1.9896 1.0014-1.9896 0.5462 0 1.0014-0.5895 1.0014-1.3151 0-0.7199 1.6842-4.6538 3.7496-8.7407 2.0653-4.0869 4.5745-9.4378 5.5816-11.892 1.0014-2.4544 2.2418-5.4756 2.7482-6.7057 0.5064-1.2357 1.4281-3.4747 2.0426-4.9825s1.5135-3.5201 1.9971-4.4723c0.4893-0.9523 0.8876-2.6358 0.8876-3.7355 0-1.1053 0.4495-2.0123 0.9957-2.0123 0.5519 0 1.0014-1.3434 1.0014-2.9872 0-1.6439 0.4495-2.9873 1.0014-2.9873s1.0014-1.0996 1.0014-2.4374c0-1.3377 0.4495-2.7095 1.0014-3.0439 0.5462-0.3401 1.0014-1.6892 1.0014-2.9929 0-1.3038 0.4495-2.6528 0.9957-2.9873 0.5519-0.3401 1.0014-1.7118 1.0014-3.0496 0-1.3377 0.404-2.4317 0.8933-2.4317s1.1664-1.5701 1.5021-3.4917c0.33-1.9159 0.8819-5.0562 1.2176-6.9778 0.3357-1.9159 1.0071-3.4861 1.5021-3.4861 0.4893 0 0.8876-1.5418 0.8876-3.4294 0-1.8875 0.4495-3.7071 1.0014-4.0472 0.5519-0.3344 1.0014-2.069 1.0014-3.8432 0-1.7798 0.4836-3.7128 1.0754-4.3023 0.5917-0.5895 1.2119-2.137 1.3769-3.4407 0.165-1.2981 1.2233-6.1785 2.3499-10.838 5.5475-22.963 8.1136-40.121 10.276-68.769 1.3598-18.042 0.6657-102.05-0.8592-103.9-0.569-0.6858-1.2745-4.3873-1.559-8.2248-0.6941-9.2281-3.4707-25.593-7.4763-44.1-0.5007-2.3297-0.6942-4.2343-0.4268-4.2343 0.2675 0-0.057-0.6575-0.7226-1.4568-0.6713-0.8049-1.4053-3.384-1.6272-5.7307-0.2276-2.3524-0.8649-4.427-1.4111-4.6084s-0.9957-1.6155-0.9957-3.18-0.4495-3.1233-1.0014-3.4634-1.0014-2.1313-1.0014-3.9848c0-1.8536-0.4495-3.6505-1.0014-3.9906-0.5462-0.3344-0.9957-1.9046-0.9957-3.4861 0-1.5814-0.4552-3.1516-1.0014-3.486-0.5519-0.3401-1.0014-1.6892-1.0014-2.9929 0-1.3038-0.4495-2.6528-1.0014-2.9873-0.5519-0.3401-1.0014-1.9386-1.0014-3.5484 0-1.6155-0.4495-2.9305-1.0014-2.9305-0.5462 0-0.9957-1.3208-0.9957-2.9306 0-1.6155-0.4552-3.2083-1.0014-3.5484-0.5519-0.3401-1.0014-1.7119-1.0014-3.0496 0-1.3378-0.4495-2.4318-1.0014-2.4318s-1.0014-1.094-1.0014-2.4317-0.4495-2.7095-1.0014-3.0496c-0.5462-0.3401-0.9957-1.4908-0.9957-2.5621s-0.3983-2.7265-0.8876-3.6788c-0.4836-0.9523-1.3371-2.8569-1.8947-4.2229-0.5633-1.3718-1.7012-4.0643-2.5376-5.9802-0.8364-1.9216-2.3157-5.5097-3.283-7.9754-0.9673-2.4658-2.3556-4.8408-3.0839-5.283-0.7282-0.4364-1.32-1.6268-1.32-2.6358 0-1.0146-1.3485-4.4043-3.0042-7.5276-1.65-3.129-2.9985-6.3089-2.9985-7.0798 0-0.76523-0.4495-1.3944-1.0014-1.3944s-1.0014-0.89561-1.0014-1.9896c0-1.0997-0.4495-1.9953-1.0014-1.9953-0.5462 0-0.9957-0.89561-0.9957-1.9953 0-1.094-0.4495-1.9896-1.0014-1.9896s-1.0014-0.8616-1.0014-1.9102c0-1.0543-0.3357-2.0633-0.751-2.2447-0.4097-0.18139-1.872-2.5734-3.2489-5.317-2.8676-5.7137-8.2501-14.925-10.589-18.122-2.2702-3.0893-5.3712-8.4799-6.0653-10.526-0.3243-0.96363-0.9843-1.7459-1.4737-1.7459-0.4836 0-0.8819-0.58951-0.8819-1.3094 0-0.71988-0.7852-2.1767-1.7524-3.2366-0.9616-1.0657-2.3897-3.1686-3.1692-4.6764-0.7795-1.5021-1.7923-2.7378-2.2475-2.7378-0.4608 0-0.8421-0.56117-0.8477-1.247-0.01-0.68588-0.9104-2.3637-2.0085-3.7355-4.4722-5.589-8.9842-11.881-8.9842-12.533 0-0.37978-0.8079-1.4171-1.7979-2.3014-0.9844-0.88427-2.8847-3.18-4.2105-5.1016-1.3314-1.9159-3.6699-4.6764-5.2061-6.1275-1.5305-1.4568-2.788-3.0779-2.788-3.6108 0-0.5385-1.4622-2.5734-3.2545-4.529-4.9046-5.368-6.7481-7.624-6.7481-8.2362 0-0.30042-3.4935-4.0529-7.7551-8.3325-4.2616-4.2853-12.54-12.663-18.389-18.621-5.8548-5.9632-13.616-13.649-17.257-17.085-6.2132-5.8611-7.9884-9.2395-5.6215-10.696 0.552-0.3401 1.0014-2.9646 1.0014-5.8384 0-2.8739 0.4154-5.6514 0.9275-6.1729 0.9615-0.98064 1.7752-9.4889 2.623-27.356 0.2731-5.7534 0.9615-11.376 1.5248-12.487 1.7468-3.435-0.239-73.751-2.1336-75.667-0.5178-0.52149-0.9389-4.2173-0.9389-8.2192 0-4.1889-0.4267-7.2782-1.0014-7.2782-0.5632 0-1.0014-2.8059-1.0014-6.4166 0-3.5314-0.4494-6.7-1.0014-7.0345-0.5462-0.3401-1.0014-2.5848-1.0014-4.9882 0-2.3977-0.4494-4.6424-0.9957-4.9825-0.5519-0.33444-1.0014-2.6075-1.0014-5.0392 0-2.4374-0.4039-4.427-0.8989-4.427s-1.1494-1.9046-1.4566-4.2343c-1.064-8.1228-1.8719-11.734-2.7596-12.278-0.4893-0.30042-0.8876-2.0633-0.8876-3.9169 0-1.8536-0.4494-3.6504-1.0014-3.9905-0.5519-0.33444-1.0014-1.4908-1.0014-2.5621 0-1.0713-0.4096-2.7265-0.9103-3.6788s-2.6002-7.0005-4.6713-13.44c-2.0654-6.4393-4.1308-11.711-4.5916-11.711-0.4552 0-0.8307-0.90128-0.8307-2.0066 0-1.1053-0.4495-2.8966-1.0014-3.9849-0.5463-1.094-1.4509-2.8739-1.9972-3.9622-0.5519-1.0883-1.0014-2.6585-1.0014-3.4861 0-0.83326-0.4494-1.5135-1.0013-1.5135-0.552 0-1.0014-1.3434-1.0014-2.9872 0-1.6438-0.4495-2.9872-1.0014-2.9872-0.5463 0-0.9958-0.90127-0.9958-1.9953 0-1.0997-0.4551-1.9953-1.0014-1.9953-0.5519 0-1.0013-1.1223-1.0013-2.4884 0-1.3718-0.4495-2.4941-1.0014-2.4941-0.552 0-1.0014-0.89561-1.0014-1.9953 0-1.094-0.4495-1.9896-1.0014-1.9896-0.5463 0-1.0128-0.56117-1.0299-1.247-0.034-1.2811-2.714-6.666-9.7921-19.681-2.2417-4.1152-4.8192-8.9334-5.7409-10.719-0.9161-1.7799-2.0711-3.2366-2.5547-3.2366-0.4894 0-0.8876-0.89561-0.8876-1.9953 0-1.094-0.4495-1.9896-1.0014-1.9896s-1.0014-0.67454-1.0014-1.4965c0-0.82191-0.4495-1.4964-1.0014-1.4964-0.5463 0-0.9957-0.66887-0.9957-1.4965 0-0.82192-0.4552-1.4908-1.0014-1.4908-0.552 0-1.0014-0.8956-1.0014-1.9953 0-1.094-0.3756-1.9953-0.8307-1.9953-0.4609 0-1.4737-1.23-2.2532-2.7378s-2.2076-3.6108-3.1692-4.6708c-0.9616-1.0657-1.7695-2.4091-1.7923-2.9929-0.023-0.58384-1.3712-2.6075-2.9985-4.5064-1.6272-1.8989-2.9643-4.0302-2.9643-4.7331 0-0.70854-0.4154-1.2867-0.9332-1.2867-0.512 0-1.2176-0.90127-1.5703-2.0066-0.3528-1.1053-1.0583-1.7515-1.5704-1.4341-0.5064 0.31176-0.9274 0.0907-0.9274-0.49315 0-0.58952-1.3485-2.4771-2.9985-4.1946-1.6501-1.7232-3.0042-3.6958-3.0042-4.393s-0.3357-1.4114-0.7511-1.5985c-0.7909-0.35144-4.108-4.2796-8.2501-9.7723-2.8791-3.8148-10.577-12.272-20.176-22.158-3.6699-3.7808-8.5176-8.8654-10.776-11.303-2.2589-2.4431-4.3982-4.4384-4.7567-4.4384-0.3584 0-2.5205-1.9046-4.8021-4.2343-2.2873-2.3297-5.4736-5.317-7.0838-6.6377-1.6102-1.3264-4.5177-3.7922-6.4692-5.4813-1.9459-1.6948-5.0469-4.2003-6.8847-5.572-1.8377-1.3718-4.5233-3.5031-5.9628-4.7331-1.4395-1.2357-2.9587-2.2447-3.3741-2.2447-0.421 0-2.1734-1.3434-3.9031-2.9872-1.724-1.6438-3.7496-2.9929-4.4893-2.9929-0.7453 0-1.3541-0.45347-1.3541-1.009s-1.4623-1.8932-3.2489-2.9646c-4.4095-2.6528-6.4635-4.0926-9.5986-6.7397-1.4623-1.23-3.1351-2.239-3.7211-2.239s-1.9573-0.78791-3.0497-1.7459c-1.8719-1.6382-3.0554-2.3921-8.6428-5.4813-1.2403-0.68588-2.475-1.4738-2.7538-1.7459-0.2731-0.27775-1.8492-1.1734-3.4992-1.9953-1.65-0.81625-3.2261-1.7119-3.4992-1.9896-0.8307-0.82759-8.2559-4.8011-12.256-6.547-2.0653-0.90695-3.7495-2.0463-3.7495-2.5338 0-0.48749-0.8649-0.88427-1.9175-0.88427-1.0583 0-2.071-0.36278-2.2531-0.79925-0.3812-0.90694-9.3085-5.1809-10.828-5.1809-0.5576 0-1.0128-0.45347-1.0128-0.99764 0-0.54983-0.8705-0.99763-1.9402-0.99763s-2.219-0.44781-2.5604-0.99764-1.4907-0.99764-2.5604-0.99764-1.9402-0.4478-1.9402-0.99763c0-0.54417-0.6828-0.99197-1.5135-0.99197-0.8364 0-2.2986-0.39679-3.2545-0.88427-1.7866-0.90694-5.8491-2.6301-10.236-4.3533-1.3769-0.53849-3.283-1.3718-4.2389-1.8592-0.9559-0.48181-2.6457-0.8786-3.7552-0.8786-1.1038 0-2.0142-0.4478-2.0142-0.99764 0-0.54416-1.3485-0.99764-2.9985-0.99764s-3.0042-0.40245-3.0042-0.90127-2.5888-1.6892-5.7523-2.6471-6.1791-2.1256-6.7026-2.5848c-0.5234-0.4648-1.9573-0.83892-3.1919-0.83892-1.229 0-2.5206-0.4478-2.8563-0.99764-0.3414-0.54983-1.9174-0.99763-3.5049-0.99763-1.5817 0-3.1578-0.44781-3.4992-0.99764s-2.1393-0.99764-3.9999-0.99764c-1.8662 0-3.6642-0.4478-4.0056-0.99197-0.3414-0.54983-2.1678-0.99763-4.0568-0.99763-1.8947 0-3.4423-0.44781-3.4423-0.99764s-1.5533-0.99764-3.4423-0.99764c-1.8947 0-3.7211-0.4478-4.0625-0.99763-0.3414-0.54417-2.8449-0.99764-5.5646-0.99764-2.714 0-4.9387-0.4478-4.9387-0.99197 0-0.54983-2.475-0.99764-5.502-0.99764-3.0269 0-5.502-0.4478-5.502-0.99763 0-0.54984-2.4523-0.99764-5.4451-0.99764s-5.6784-0.37978-5.9685-0.84459c-0.2845-0.46481-3.8008-0.93529-7.8121-1.0543-4.0056-0.11337-7.7153-0.62919-8.2388-1.145-0.5234-0.52149-6.0083-0.94095-12.193-0.94095-6.4181 0-11.51-0.4308-11.863-0.99764-0.7965-1.281-51.748-1.3547-53.074-0.0794-0.5234 0.50449-6.1278 1.179-12.455 1.4908-18.685 0.92395-26.452 1.6778-27.459 2.6528-0.5235 0.50449-3.5334 0.91828-6.6969 0.91828-3.1578 0-6.0198 0.4478-6.3611 0.99764-0.3357 0.54983-2.8165 0.99763-5.502 0.99763-2.6856 0-5.1606 0.44781-5.502 0.99764-0.3357 0.54417-2.3897 0.99197-4.5575 0.99197s-3.943 0.45347-3.943 0.99764c0 0.54983-2.0256 0.99763-4.5006 0.99763-2.4808 0-4.5063 0.44781-4.5063 0.99764s-1.5476 0.99764-3.4423 0.99764c-1.889 0-3.7211 0.4478-4.0568 0.99763-0.3414 0.54417-1.5761 0.99197-2.7425 0.99197-2.1735 0-3.613 0.40246-14.628 4.0699-3.4992 1.1677-7.078 2.2277-7.9486 2.3524-0.8705 0.13038-1.741 0.70855-1.9345 1.2867-0.1934 0.57817-1.1664 0.83892-2.1564 0.58384-0.9957-0.26074-2.4466 0.17005-3.2318 0.95229-1.4964 1.4851-3.8747 0.13604-3.8747-2.1937 0-0.5555-0.899-2.6075-2.0028-4.5574-1.0981-1.9499-1.9971-4.206-1.9971-5.0165 0-0.80491-0.4495-1.4624-1.0014-1.4624s-1.0014-0.86159-1.0014-1.9102c0-1.0487-0.3357-2.0576-0.7511-2.2447-0.6714-0.29475-3.6926-5.538-6.6513-11.535-0.6031-1.23-1.4395-2.239-1.8492-2.239-0.4153-6e-3 -0.751-0.90695-0.751-2.001 0-1.0997-0.4495-1.9953-1.0014-1.9953s-1.0014-0.47614-1.0014-1.0657c0-0.58384-1.1266-2.5338-2.4978-4.3306-1.3769-1.7912-2.5035-3.5768-2.5035-3.9565 0-0.38545-0.899-1.6608-2.0028-2.8342-1.0981-1.179-1.9971-2.7322-1.9971-3.452 0-0.71422-0.3983-1.3037-0.8819-1.3037-0.4837 0-1.4339-1.3434-2.1223-2.9929-0.6828-1.6438-1.6387-2.9872-2.1223-2.9872s-0.8762-0.67454-0.8762-1.4964c0-0.82192-0.4495-1.4965-1.0014-1.4965s-1.0014-0.66887-1.0014-1.4908c0-0.82191-0.4495-1.4964-1.0014-1.4964-0.5462 0-0.9957-0.67454-0.9957-1.4965s-0.3528-1.4908-0.7852-1.4908-1.5761-1.3321-2.5376-2.9589c-0.9616-1.6212-2.2987-3.5314-2.9644-4.2343-0.6714-0.70855-3.374-3.9792-6.0084-7.2612-9.2231-11.512-10.236-12.737-12.967-15.679-1.5134-1.6325-2.7481-3.3387-2.7481-3.7922 0-2.188-42.616-42.966-45.609-43.641-0.7909-0.18139-1.1778-0.74256-0.8649-1.247 0.313-0.50448 0.051-0.91828-0.586-0.91828-0.6373 0-2.3556-1.264-3.8122-2.8002-1.4565-1.5418-6.253-5.4643-10.657-8.7237-4.3982-3.2537-8.1534-6.2579-8.3355-6.666-0.1821-0.41379-0.9673-0.74823-1.7411-0.74823s-1.9686-0.8956-2.6571-1.9953c-0.6884-1.094-1.8207-1.9896-2.5092-1.9896-0.6941 0-1.2631-0.4478-1.2631-0.99763 0-0.54984-0.8022-0.99764-1.7809-0.99764-0.9786 0-2.4238-0.89561-3.2204-1.9953-0.7909-1.094-1.9061-1.9953-2.4693-2.0066-0.569-6e-3 -2.1565-0.90127-3.5334-1.9839-4.0511-3.1913-13.132-8.9617-14.105-8.9617-0.495 0-0.899-0.36845-0.899-0.81058 0-0.44781-1.5761-1.4284-3.5049-2.1823-1.9231-0.7539-3.4992-1.7345-3.4992-2.1767 0-0.4478-0.899-0.81058-2.0028-0.81058-1.0981 0-1.9971-0.4478-1.9971-0.99763 0-0.54984-0.899-0.99764-2.0028-0.99764-1.0981 0-2.0028-0.4478-2.0028-0.99764 0-0.54416-0.899-0.99764-1.9971-0.99764-1.1038 0-2.0028-0.33443-2.0028-0.75389 0-0.41379-1.4622-1.3831-3.2488-2.1597-1.7923-0.77657-3.4765-1.6722-3.7553-1.9896-1.0128-1.1734-5.0183-3.0666-6.4863-3.0666-0.8307 0-1.5135-0.36277-1.5135-0.80491 0-0.44213-1.9117-1.5928-4.2502-2.5508-2.3385-0.96363-7.0269-3.0666-10.424-4.6764-3.3911-1.6155-6.4351-2.9306-6.7594-2.9306-0.6486 0-8.9955-3.5768-11.818-5.0675-0.9559-0.50449-2.4239-0.91261-3.266-0.91261-0.8364 0-2.4181-0.4478-3.5162-0.99764-1.0925-0.54983-2.8791-1.4454-3.9715-1.9953-1.0924-0.54417-3.118-0.99764-4.5006-0.99764s-2.5149-0.4478-2.5149-0.99197c0-0.54983-1.3541-0.99764-3.0042-0.99764-1.65 0-2.9985-0.4478-2.9985-0.99763 0-0.54984-1.576-0.99764-3.5049-0.99764-1.9231 0-3.4992-0.4478-3.4992-0.99764 0-0.54416-1.3484-0.99197-2.9985-0.99197-1.6557 0-3.0042-0.45347-3.0042-0.99763 0-0.54984-1.4736-0.99764-3.2773-0.99764-1.8036 0-4.1649-0.61219-5.2516-1.3604-1.0868-0.74256-4.2275-1.7175-6.9757-2.154-2.7538-0.43647-5.4508-0.90694-6.0027-1.0373-0.5519-0.13604-3.2545-0.7709-6.0027-1.4228-2.7538-0.6462-6.3839-1.5872-8.0737-2.086-1.6899-0.49882-4.4779-0.91261-6.1962-0.91261-1.7126 0-3.3512-0.36845-3.63-0.82192-0.2845-0.45347-3.1237-0.92962-6.31-1.0543-3.1919-0.1247-6.2303-0.65187-6.7537-1.1677-0.5235-0.51582-4.4608-0.94095-8.7509-0.94095-4.2958 0-7.8063-0.40246-7.8063-0.88994s-5.7183-0.95796-12.705-1.043c-6.9927-0.08503-13.206-0.56117-13.803-1.0543-1.4111-1.1677-41.905-1.2017-43.106-0.03401m602.37-0.03401c-0.3642 0.58384-2.2873 1.0657-4.2787 1.0657-3.5448 0-9.0411 1.3661-12.506 3.1119-0.9559 0.47614-2.6458 0.87293-3.7496 0.87293-1.1095 0-2.0142 0.4478-2.0142 0.99764 0 0.54417-0.5633 1.009-1.2517 1.0316-3.7951 0.1077-19.357 13.338-24.403 20.752-2.1109 3.0893-4.0625 5.8441-4.347 6.1219-1.3428 1.3037-3.0155 5.1582-3.0155 6.9608 0 1.1053-0.4495 2.0066-0.9958 2.0066-0.5519 0-1.0014 1.094-1.0014 2.4317s-0.4494 2.7095-1.0014 3.0496c-0.5519 0.3401-1.0014 2.3864-1.0014 4.546 0 2.1596-0.4494 3.9282-1.0013 3.9282-0.6145 0-1.0014 5.1469-1.0014 13.451 0 8.3099 0.3869 13.457 1.0014 13.457 0.5519 0 1.0013 1.7912 1.0013 3.9849s0.4495 3.9906 1.0014 3.9906c0.552 0 1.0014 1.094 1.0014 2.4317s0.4495 2.7095 1.0014 3.0496c0.5463 0.33443 0.9958 1.4851 0.9958 2.5451 0 1.0656 0.3982 1.9386 0.8876 1.9386 0.4836 0 1.1322 0.78223 1.4395 1.7402 0.6088 1.9216 3.6073 7.0175 5.1776 8.803 7.0554 8.0208 12.779 13.241 16.756 15.288 1.5135 0.77657 2.7538 1.7855 2.7538 2.2447 0 0.45348 0.899 0.82759 1.9971 0.82759 1.1039 0 2.0028 0.4478 2.0028 0.99197 0 0.54983 0.7056 0.99764 1.5704 0.99764 0.8649 0 2.1564 0.58384 2.8677 1.2924 0.7169 0.71422 3.2716 1.8592 5.684 2.5564 2.4125 0.69155 5.5817 1.6268 7.0496 2.0746 3.9146 1.2017 25.143 1.3207 29.558 0.17005 2.0825-0.54417 5.9174-1.5191 8.5233-2.171 2.6002-0.64619 5.246-1.7969 5.8718-2.5508 0.6316-0.7539 1.9915-1.3718 3.0213-1.3718 1.0355 0 1.8776-0.44781 1.8776-0.99764 0-0.54417 0.8023-0.99197 1.7809-0.99197 0.9787 0 2.4296-0.90127 3.2204-1.9953 0.7966-1.094 2.054-1.9953 2.8051-1.9953 0.7453 0 3.0838-1.7912 5.2004-3.9849s4.3299-3.9849 4.9217-3.9849c0.5974 0 1.081-0.45347 1.081-1.0033 0-0.55551 1.138-1.9896 2.532-3.197 1.3883-1.2074 3.1293-3.333 3.8576-4.7274 3.596-6.8701 5.98-11.717 6.7595-13.746 0.4722-1.2357 1.2802-3.2537 1.7922-4.4837 2.3556-5.623 4.0113-32.1 2.128-33.976-0.586-0.58385-1.064-2.7605-1.064-4.8465 0-2.0803-0.4495-3.7865-1.0014-3.7865-0.5462 0-0.9957-0.90127-0.9957-2.0066 0-1.1053-0.4153-2.7832-0.916-3.7355-0.5064-0.95229-1.633-3.367-2.5035-5.368-2.4125-5.5437-9.8775-14.931-16.199-20.378-3.118-2.6925-6.2075-5.4076-6.8675-6.0425-1.1949-1.1507-8.7793-5.1412-13.53-7.1195-3.0781-1.2867-7.1748-2.2107-12.756-2.8795-2.3385-0.27775-4.2503-0.82192-4.2503-1.2074 0-1.179-16.745-1.3321-17.468-0.16438" fill="#008bbf"/>
<path d="m660.23 473.48c-1.9774 1.9325-0.90397 46.228 1.137 46.994 1.0805 0.4072 160.72 0.73849 354.74 0.73849 367.6 0 358.61-0.12424 375.28 5.1073 84.627 26.544 78.426 119.92-9.308 140.29-3.0722 0.71778-7.2672 1.7116-9.3152 2.2086-2.048 0.50384-163.25 1.2147-358.23 1.5874l-354.51 0.66948v48.54h373.13c309.72 0 374.41-0.27606 380.59-1.6426 83.667-18.497 125.74-107.34 85.51-180.59-18.397-33.508-49.492-55.2-90.877-63.4-7.3518-1.4563-746.67-1.9532-748.15-0.50383m53.398 80.088c-1.1512 1.1319-1.0028 10.394 0.19775 12.244 0.78391 1.2078 70.333 1.4563 343.62 1.2147l342.64-0.31059v-13.348l-342.82-0.30368c-188.55-0.16563-343.18 0.0621-343.64 0.50384m-0.26836 37.228c-0.40255 1.5667-0.55792 4.9831-0.33899 7.5851l0.39548 4.7415h686.67v-14.563l-343-0.30368-343-0.30368-0.72741 2.8435m0.26836 35.586c-1.0382 1.0077-1.0946 10.463-0.0777 13.044 0.68503 1.7462 32.091 1.9187 343.31 1.9187h342.56l0.7274-2.8435c0.4026-1.5667 0.5509-4.9762 0.3319-7.5851l-0.3955-4.7346-342.82-0.31057c-188.55-0.16565-343.18 0.0621-343.64 0.51073m135.76 141.78v23.666h350.48c311.74 7e-3 351.69 0.21396 361.53 1.898 72.996 12.478 103.72 73.635 59.719 118.9-7.6696 7.8887-32.204 22.389-37.889 22.389-1.2782 0-2.6271 0.48312-3.0014 1.0767-0.3744 0.59356-2.7826 1.4287-5.3532 1.8566-2.5636 0.42101-7.7403 1.3873-11.497 2.1464-4.9436 0.99386-104.47 1.5736-360.1 2.0912l-353.27 0.71779v48.54h373.76c305.91 0 374.77-0.28987 379.34-1.6012 32.105-9.207 45.99-16.847 64.973-35.758 11.518-11.485 15.537-17.123 23.722-33.294 2.4435-4.8174 4.4351-9.5659 4.4351-10.546s0.4873-2.0774 1.0735-2.4294c0.5932-0.35889 1.4124-2.4432 1.822-4.6242 0.4097-2.1879 1.6032-7.799 2.6484-12.472 2.2176-9.8558 2.5495-34.371 0.5932-42.846-3.3122-14.3-3.9407-16.764-4.8659-19.042-5.8193-14.39-8.4253-19.642-13.863-27.938-13.1-19.994-35.622-38.001-60.043-48.016-4.6258-1.898-18.588-5.6388-26.152-7.0122-5.4732-0.99385-108.5-1.3666-377.8-1.3666h-370.27v23.659m54.33 56.526c-2.2317 1.2699-2.8462 6.4463-1.3914 11.74l0.74864 2.7262 342.88-0.30367 342.88-0.30368 0.3813-6.5567c0.2542-4.4309-0.1483-6.888-1.2429-7.5712-2.4506-1.5184-681.59-1.2492-684.26 0.26916m-0.88987 37.442c-1.8292 3.3336-1.596 10.456 0.39546 12.071 1.2359 1.0008 91.894 1.2768 343.64 1.056l341.97-0.30367 0.3813-5.8596c0.2119-3.2784-0.2683-6.6188-1.0876-7.5851-2.6695-3.1472-683.58-2.533-685.3 0.62116m-0.459 36.083c-1.2289 1.2009-1.0029 8.289 0.38133 11.85l1.2147 3.1196 342.44-0.31058 342.44-0.30368 0.3672-7.5851 0.3673-7.5851h-343.18c-188.75 0-343.56 0.36579-344.02 0.81441m-242.96 146.6v23.666l353.58 0.428c256.42 0.3105 355.46 0.8075 360.41 1.8013 3.7571 0.7523 8.9267 1.7186 11.497 2.1465 2.5706 0.421 4.9718 1.2561 5.3532 1.8497 0.3743 0.5935 1.7584 1.0835 3.0861 1.0835 3.2769 0 21.936 9.5797 28.567 14.666 50.566 38.788 34.485 101-31.738 122.76-15.177 4.99-11.003 4.9279-375.93 5.3558l-354.82 0.421v49.776l375.93-0.3796c340.47-0.3382 376.52-0.5591 382.14-2.319 52.924-16.544 82.904-47.636 94.867-98.378 1.7939-7.5989 1.7515-38.105-0.056-45.476-10.028-40.838-35.445-73.545-68.426-88.067-2.5637-1.125-6.4832-2.8712-8.7078-3.8719-4.0466-1.8221-6.6668-2.6779-19.541-6.4118-6.236-1.8013-39.506-2.0084-381.52-2.3466l-374.69-0.3796v23.673m54.944 56.042c-0.99578 0.3934-1.5466 3.1886-1.5466 7.7921v7.1847h686.66v-7.1501c0-5.4042-0.4803-7.3367-1.9633-7.8888-2.3518-0.8834-680.92-0.8144-683.15 0.062m-0.72035 37.628c-1.4266 1.3873-0.90397 11.982 0.66385 13.507 1.5749 1.546 679.11 2.2569 683.21 0.7248 1.483-0.5592 1.9633-2.4917 1.9633-7.8888v-7.1503h-342.51c-188.38 0-342.88 0.3589-343.33 0.8075m0 36.407c-1.815 1.7668-0.87572 13.472 1.137 14.224 2.5636 0.9663 680.17 0.9663 682.74 0 1.483-0.5521 1.9633-2.4846 1.9633-7.8887v-7.1503h-342.51c-188.38 0-342.88 0.3659-343.33 0.8145m138.79 123.31c-0.332 0.8558-0.45911 11.643-0.26845 23.963l0.33907 22.417 355.75 0.7316c336.59 0.6901 365.23 0.9731 368.11 3.6372 0.6497 0.6004 2.4788 1.0905 4.0538 1.0905 1.5819 0 3.8418 0.4831 5.0283 1.0698 1.1864 0.5935 3.8347 1.7531 5.8828 2.5881 70.792 28.787 69.676 105.03-1.9492 132.76-20.608 7.9715 13.171 7.2607-380.5 7.9647l-356.37 0.635v49.755h371.89c356.89 0 372.24-0.09 380.59-2.2292 28.178-7.2262 45.742-16.55 63.793-33.853 7.4295-7.1226 24.993-30.361 24.993-33.066 0-0.3589 1.0523-2.9748 2.3305-5.7975 20.219-44.51 9.7953-100.11-25.304-135-20.297-20.181-42.847-31.52-73.335-36.89-11.843-2.0912-744.21-1.8634-745.03 0.2278m53.348 80.206c-0.36014 0.9179-0.48019 4.3343-0.26834 7.5851l0.38143 5.9148 341.34 0.3037c258.03 0.2277 341.77-0.041 343.08-1.1043 1.1794-0.9594 1.6244-3.4026 1.37-7.5851l-0.3672-6.177-342.44-0.3037c-290.08-0.2623-342.54-0.055-343.1 1.3665m0.32494 35.544c-1.815 1.7668-0.88281 13.472 1.13 14.232 3.0367 1.1388 681.39 0.8281 683.22-0.3106 1.1017-0.6764 1.5043-3.1403 1.243-7.5644l-0.3814-6.5566-342.2-0.3107c-188.2-0.1656-342.57 0.062-343.02 0.5108m0 36.407c-0.45911 0.4417-0.83338 3.9892-0.83338 7.8887v7.0813l343.03-0.3106 343.02-0.3037 0.3814-6.5567c0.2613-4.424-0.1413-6.888-1.243-7.5643-1.9138-1.1872-683.15-1.4218-684.35-0.2347" fill="#e8f3f9"/>
<path d="m246.36 201.28c0.14377-3.4904 0.85374-4.2004 1.8102-1.8102 0.86552 2.1629 0.75908 4.7471-0.23654 5.7427s-1.7038-0.77402-1.5737-3.9325z" stroke-width="2.9962"/>
</g>
</svg>
