<?xml version="1.0" encoding="UTF-8" standalone="no"?>
<svg xmlns:osb="http://www.openswatchbook.org/uri/2009/osb" xmlns:dc="http://purl.org/dc/elements/1.1/" xmlns:cc="http://creativecommons.org/ns#"
  xmlns:rdf="http://www.w3.org/1999/02/22-rdf-syntax-ns#" xmlns:svg="http://www.w3.org/2000/svg" xmlns="http://www.w3.org/2000/svg"
  xmlns:sodipodi="http://sodipodi.sourceforge.net/DTD/sodipodi-0.dtd" xmlns:inkscape="http://www.inkscape.org/namespaces/inkscape"
  id="svg" version="1.1" width="2275" height="2000" style="display: block;" sodipodi:docname="dreamsection.svg" inkscape:version="0.92.2 (5c3e80d, 2017-08-06)">
  <metadata id="metadata13">
    <rdf:RDF>
      <cc:Work rdf:about="">
        <dc:format>image/svg+xml</dc:format>
        <dc:type rdf:resource="http://purl.org/dc/dcmitype/StillImage" />
      </cc:Work>
    </rdf:RDF>
  </metadata>
  <defs id="defs11">
    <linearGradient id="linearGradient6016" osb:paint="solid">
      <stop style="stop-color:#000000;stop-opacity:1;" offset="0" id="stop6014" />
    </linearGradient>
  </defs>
  <style id="style5">
    g path#path4 {
      animation: scalarRotator infinite;
      animation-duration: 2s;
      transform-origin: 1000px 1000px;
      width: 99%;
      height: 99%;
      transform: rotate(-90deg)
    }
  </style>
  <g id="svgg">
    <path id="path4" d="m 6.51749,1656.6957 c 4.081806,2.6791 97.64324,1.2247 99.26138,-1.5404 0.86009,-1.4639 1.55986,-217.739 1.55986,-480.6105 0,-498.02417 -0.26242,-485.8441 10.78769,-508.43413 56.06687,-114.65334 253.29219,-106.25267 296.32635,12.6106 1.51608,4.16222 3.61532,9.84555 4.66494,12.62035 1.06422,2.77463 2.56572,221.17387 3.35291,485.33688 l 1.41407,480.2947 h 51.27072 51.25612 v -505.5255 c 0,-419.60464 -0.5831,-507.24772 -3.46957,-515.61979 C 483.87305,522.47572 296.22548,465.47913 141.49489,519.9785 70.718862,544.90318 24.900313,587.03114 7.5816896,643.09969 4.5057291,653.05998 3.4561148,1654.6865 6.51749,1656.6957 m 169.16277,-72.3436 c 2.39074,1.5596 21.95437,1.3586 25.8613,-0.2679 2.55112,-1.0621 3.07594,-95.2877 2.56573,-465.5407 l -0.65604,-464.21091 h -14.09688 -14.09691 l -0.64142,464.45011 c -0.34984,255.4465 0.13104,464.9474 1.06422,465.5694 m 78.63354,0.3635 c 3.30919,0.5454 10.52531,0.756 16.02118,0.4593 l 10.01506,-0.5357 V 1119.481 654.33259 h -15.37976 -15.37976 l -0.64143,464.69871 -0.6414,464.6988 6.00611,0.9855 m 75.16401,-0.3635 c 2.12836,1.4065 22.10015,1.483 27.55232,0.1049 3.68826,-0.9281 4.0527,-43.4771 4.0527,-465.1197 V 655.23188 l -6.00615,-0.98549 c -3.30918,-0.54544 -10.5107,-0.74631 -16.02115,-0.44968 l -10.00052,0.53588 -0.65596,464.45011 c -0.3499,255.4465 0.13103,464.9474 1.07876,465.5694 M 628.93838,1400.4264 H 678.9262 V 925.5951 c 0.0157,-422.34152 0.45197,-476.47716 4.00898,-489.80527 26.35697,-98.895 155.53233,-140.51576 251.14918,-80.90718 16.66257,10.39094 47.29114,43.63005 47.29114,51.33249 0,1.73167 1.0204,3.55917 2.27382,4.06632 1.25385,0.5072 3.01777,3.76988 3.92164,7.25244 0.88921,3.47317 2.93031,10.48671 4.53389,15.57683 2.09901,6.69755 3.32368,141.53929 4.41705,487.86302 l 1.51604,478.61065 h 51.25616 51.2705 V 893.21686 c 0,-414.44755 -0.6122,-507.74515 -3.3821,-513.93575 -19.4467,-43.49614 -35.5845,-62.30684 -75.5282,-88.02566 -24.25785,-15.60523 -36.16785,-21.04945 -70.3241,-32.13882 -10.17553,-3.3105 -20.20506,-6.00862 -22.2752,-6.00862 -2.07,0 -4.38799,-0.66032 -5.1315,-1.45444 -0.75803,-0.80372 -5.16041,-1.91358 -9.76716,-2.46848 -4.6213,-0.5551 -16.47314,-2.17209 -26.34243,-3.5881 -20.81724,-3.00448 -72.59823,-3.45403 -90.49998,-0.80366 -30.20556,4.4874 -35.40992,5.33894 -40.22063,6.59232 -30.39504,7.8841 -41.48889,11.41467 -59.01163,18.78204 -42.23235,17.7486 -80.26628,48.26084 -101.41891,81.34707 -4.00891,6.26708 -11.91017,25.18302 -14.8112,35.43042 -2.09923,7.41506 -2.88646,146.99315 -2.88646,511.8404 v 501.64082 h 49.97328 m 119.39355,-73.6068 c 2.68235,3.0236 13.61581,3.856 24.79714,1.8851 l 5.7583,-1.0143 -0.64142,-464.5361 -0.64147,-464.53625 -13.84905,-0.5166 c -9.35906,-0.34439 -14.54879,0.20093 -15.99201,1.68386 -3.20718,3.32006 -2.6386,923.41759 0.56851,927.03429 m 79.0855,1.2056 c 7.04115,2.4781 22.08556,2.1623 25.49687,-0.5358 2.11373,-1.6742 2.69685,-124.4988 2.23039,-465.56946 l -0.64139,-463.30189 -12.37671,-0.5166 c -6.92455,-0.28718 -13.98031,0.36342 -16.02119,1.47354 -6.64756,3.61658 -5.35012,926.11571 1.31203,928.45021 m 76.21356,0.6219 c 2.53661,1.665 17.5082,1.3587 25.03046,-0.5166 l 6.58916,-1.6458 -0.65604,-463.93312 -0.64153,-463.93353 -16.02105,-0.4975 -16.02118,-0.49763 v 464.94769 c 0,255.72389 0.77271,465.45459 1.72018,466.07649 m 309.65051,329.168 h 49.9878 c 0,0 0.1314,-319.3558 0.9042,-479.0314 0.7877,-162.7644 1.7054,-481.57691 3.8045,-488.28422 1.589,-5.09006 3.63,-12.09387 4.534,-15.5767 0.8893,-3.48263 2.6532,-6.73585 3.907,-7.25257 1.2532,-0.50707 2.2882,-2.38228 2.2882,-4.18099 0,-4.43964 20.2346,-29.71836 30.9784,-38.70278 81.9286,-68.50677 213.3342,-46.72033 259.2986,42.99845 10.5399,20.56185 10.4085,14.90718 11.3123,509.31481 l 0.8892,480.7154 h 52.5685 52.5679 l -0.8016,-509.3143 c -0.7145,-461.27357 -1.1809,-510.10859 -4.8982,-517.72476 -34.9436,-71.7024 -100.6171,-112.31883 -207.7944,-128.52685 -16.0504,-2.43036 -80.485,-2.37296 -96.0543,0.0757 -86.2579,13.5865 -155.3429,48.02173 -186.0148,92.70428 -2.3764,3.47332 -6.0646,8.78339 -8.1784,11.79745 -3.8487,5.48239 -5.6561,9.03218 -13.5431,26.47463 -3.8046,8.44851 -4.242,53.52321 -4.9565,516.88265 l -0.8018,507.631 h 50.0025 m 118.373,-74.4391 c 0.8311,1.3492 6.7351,2.0954 16.4588,2.0954 h 15.1752 V 1120.3228 655.17417 h -15.1023 c -11.4145,0 -15.4964,0.65073 -16.6627,2.65988 -1.8657,3.18619 -1.7202,922.50875 0.1284,925.54175 m 79.4793,0.976 c 2.9304,1.9328 25.3076,1.2247 28.5294,-0.8994 3.2651,-2.1337 4.7668,-920.05927 1.5308,-925.61835 -1.1814,-2.00915 -5.2631,-2.65988 -16.6629,-2.65988 h -15.1028 v 464.02913 c 0,255.2169 0.7581,464.5363 1.7055,465.1485 m 76.899,0 c 3.7317,2.459 28.4559,1.1864 30.045,-1.5404 2.041,-3.4733 2.041,-921.50416 0,-924.97735 -1.1659,-2.00915 -5.2478,-2.65988 -16.6623,-2.65988 h -15.1031 v 464.02913 c 0,255.2169 0.773,464.5363 1.7204,465.1485 m 260.4499,-188.04 c 1.8074,0.4498 24.5929,0.622 50.6142,0.3636 l 47.3495,-0.4593 1.5455,-481.969 c 1.4573,-456.01115 2.0551,-494.80933 7.6822,-498.7131 1.2683,-0.88025 2.3034,-3.35825 2.3034,-5.4921 0,-2.14316 1.0204,-5.20497 2.2599,-6.8124 1.2537,-1.6073 3.7029,-5.19528 5.4664,-7.96996 60.8047,-95.90981 221.8475,-94.39809 280.4074,2.64073 16.8374,27.91925 15.3361,-17.84438 16.8234,515.50487 l 1.3411,482.81096 h 52.5386 52.5537 V 892.37459 c 0,-483.51891 -0.1902,-504.31999 -4.7086,-515.61973 -15.2632,-38.17631 -34.958,-61.9719 -71.5051,-86.42774 -15.0443,-10.0655 -64.1286,-33.86118 -69.8429,-33.86118 -0.7582,0 -6.2835,-1.42564 -12.2455,-3.15739 -94.0136,-27.39327 -211.4539,-13.27071 -285.145,34.28219 -42.6261,27.49831 -66.5779,58.0491 -77.9195,99.35412 -4.417,16.04546 -3.9358,1008.25704 0.4813,1009.36694 m 169.4103,-72.2766 c 1.9387,0.4879 9.1549,0.6505 16.0212,0.3635 l 12.4934,-0.5168 0.6415,-462.45014 c 0.4809,-349.57657 -0.085,-463.03399 -2.3326,-464.81374 -2.0266,-1.59785 -7.1869,-2.2007 -16.0212,-1.85604 l -13.0473,0.49756 -0.6412,463.94287 c -0.5541,393.00579 -0.1157,464.07679 2.8862,464.83279 m 75.0764,-0.4402 c 3.7318,2.4589 28.4565,1.196 30.0602,-1.5309 2.4052,-4.1143 1.7489,-923.14974 -0.6562,-925.6373 -1.4288,-1.49257 -6.633,-2.03808 -15.9776,-1.6841 l -13.8489,0.51684 -0.6562,463.60797 c -0.3499,254.97779 0.1284,464.11519 1.0787,464.72749 m 76.899,0 c 0.9329,0.6219 8.4258,1.1291 16.6625,1.1291 h 14.9569 l -0.6559,-464.73713 -0.6415,-464.72743 -13.8489,-0.51684 c -9.3444,-0.35398 -14.549,0.19153 -15.9773,1.6841 -2.5077,2.59284 -3.0033,925.5321 -0.4958,927.1682"
      inkscape:connector-curvature="0" style="fill:#e8f3f9;fill-rule:evenodd;stroke:none;stroke-width:6.98156404;stroke-opacity:1"
      sodipodi:nodetypes="ccscccccccsccccccccccccccccccccccccscccccccccccscccccccscccsccccccccsccccccccccccccccccccccccscccacccscccccccccccccccccscccscccccscsccccscsccccccscccccccsccscccccccccccccccccccccscccccc"
    />
  </g>
</svg>
